<svg xmlns="http://www.w3.org/2000/svg" xmlns:xlink="http://www.w3.org/1999/xlink" width="89" height="63" viewBox="0 0 89 63">
    <defs>
        <path id="a" d="M.072.029h2.436v9.919H.072z"/>
        <path id="c" d="M.044.02h5.632v9.316H.044z"/>
        <path id="e" d="M.037.046h4.697v6.841H.037z"/>
        <path id="g" d="M.017.046h4.708v6.841H.017z"/>
        <path id="i" d="M.036.046H5.55v6.841H.036z"/>
        <path id="k" d="M0 62.616h89.002V0H0z"/>
    </defs>
    <g fill="none" fill-rule="evenodd">
        <g transform="translate(86.494 52.669)">
            <mask id="b" fill="#fff">
                <use xlink:href="#a"/>
            </mask>
            <path fill="#FEFEFE" d="M1.464 7.954c0 .526.109.694.457.694.098 0 .229 0 .413-.056l.174 1.064c-.403.212-.75.292-1.109.292-.957 0-1.327-.595-1.327-1.379V.03h1.392v7.925z" mask="url(#b)"/>
        </g>
        <path fill="#FEFEFE" d="M85.142 59.19c0 1.018-.326 1.914-.902 2.518-.544.571-1.295.908-2.197.908-.87 0-1.598-.28-2.12-.806-.61-.604-.946-1.535-.946-2.587 0-1.03.337-1.924.913-2.53.533-.582 1.283-.917 2.153-.917.925 0 1.685.335 2.23.928.553.595.869 1.478.869 2.486m-1.435.012c0-1.367-.62-2.262-1.675-2.262-1.076 0-1.63.918-1.63 2.262 0 1.353.619 2.26 1.652 2.26 1.077 0 1.653-.94 1.653-2.26M83.206 16.612s-2.522-.526-5.251-.526c-4.154 0-7.504 3.918-7.504 8.362s3.296 8.15 6.992 8.15c2.882 0 5.763-1.064 5.763-1.064V16.612zm5.655 20.957c0 6.347-4.372 11.217-10.493 11.217-4.524 0-8.689-1.165-11.309-2.172.675-2.272 2.262-3.649 4.426-3.649 2.098 0 2.98.368 6.22.368 2.881 0 5.501-2.271 5.501-5.339v-1.22c-1.696.581-3.86 1.163-6.067 1.163-6.894 0-12.548-5.877-12.548-13.49 0-7.622 5.817-13.768 13.211-13.768 2.577 0 4.839.168 6.634.75 2.468.795 4.425 2.374 4.425 5.765V37.57zM77.857 59.19c0 1.018-.315 1.914-.903 2.518-.543.571-1.294.908-2.196.908-.87 0-1.588-.28-2.121-.806-.608-.604-.946-1.535-.946-2.587 0-1.03.338-1.924.913-2.53.533-.582 1.283-.917 2.154-.917.924 0 1.696.335 2.229.928.565.595.87 1.478.87 2.486m-3.078 2.273c1.066 0 1.642-.94 1.642-2.261 0-1.367-.62-2.262-1.674-2.262-1.077 0-1.63.918-1.63 2.262 0 1.353.63 2.26 1.662 2.26M70.267 58.182v4.288h-1.392v-3.895c0-.75-.141-1.512-1.022-1.512-.631 0-1.219.413-1.675.817v4.59h-1.391v-9.773h1.391v3.975c.63-.504 1.283-.896 2.142-.896.946 0 1.947.526 1.947 2.406M59.74 59.19c0 1.22.654 2.25 1.926 2.25.63 0 1.109-.213 1.533-.47l.38.952a3.9 3.9 0 0 1-2.174.694c-2.023 0-3.056-1.557-3.056-3.359 0-1.937 1.272-3.481 3.24-3.481.762 0 1.338.213 1.73.448l-.012 1.22c-.435-.314-.956-.504-1.61-.504-1.173 0-1.957.94-1.957 2.25"/>
        <g transform="translate(51.553 53.28)">
            <mask id="d" fill="#fff">
                <use xlink:href="#c"/>
            </mask>
            <path fill="#FEFEFE" d="M5.676 6.806c0 1.532-1.316 2.53-3.012 2.53-1.228 0-2.055-.427-2.62-.795l.598-1.087c.434.315 1.13.671 1.968.671.718 0 1.565-.324 1.565-1.152 0-1.399-2.13-1.68-3.208-2.9C.61 3.66.37 3.146.37 2.44c0-1.322.99-2.42 2.773-2.42.935 0 1.632.237 2.088.494L5.22 1.868c-.599-.38-1.284-.637-2.012-.637-.76 0-1.392.324-1.392 1.04 0 1.803 3.86 1.747 3.86 4.535" mask="url(#d)"/>
        </g>
        <g transform="translate(42.35 55.73)">
            <mask id="f" fill="#fff">
                <use xlink:href="#e"/>
            </mask>
            <path fill="#FEFEFE" d="M3.332 4.982c0-1.298-2.915-.805-2.915-3.065 0-1.064.805-1.87 2.294-1.87.773 0 1.306.156 1.773.347v1.208C3.984 1.39 3.45 1.2 2.766 1.2c-.577 0-.99.19-.99.648 0 1.165 2.958.83 2.958 3.035 0 1.432-1.174 2.004-2.5 2.004-1.012 0-1.697-.257-2.197-.583L.504 5.24c.414.291 1 .538 1.664.538.696 0 1.164-.29 1.164-.796" mask="url(#f)"/>
        </g>
        <path fill="#FEFEFE" d="M49.769 16.13c-3.24 0-4.11.37-6.219.37-2.164 0-3.752-1.365-4.426-3.649 2.62-1.007 6.786-2.172 11.32-2.172 6.11 0 10.482 4.87 10.482 11.228v9.47c0 3.38-1.957 4.926-4.426 5.765-1.794.639-4.621 1.064-9.09 1.064-6.231 0-9.624-3.706-9.624-8.362 0-4.657 3.654-8.363 9.21-8.363h8.276c0-3.067-2.621-5.35-5.503-5.35zm-2.316 10.221c-2.566 0-3.805 1.534-3.805 3.124 0 1.577 1.293 3.38 4.577 3.38 3.6 0 5.557-.47 7.047-.84v-5.664h-7.819z"/>
        <g transform="translate(36.813 55.73)">
            <mask id="h" fill="#fff">
                <use xlink:href="#g"/>
            </mask>
            <path fill="#FEFEFE" d="M4.725 4.883c0 1.432-1.185 2.004-2.512 2.004-1 0-1.685-.257-2.196-.583L.484 5.24c.414.292 1 .538 1.664.538.696 0 1.164-.29 1.164-.796 0-1.298-2.904-.805-2.904-3.065 0-1.064.805-1.87 2.295-1.87.761 0 1.293.156 1.762.347v1.208C3.975 1.39 3.431 1.2 2.746 1.2c-.565 0-.989.19-.989.648 0 1.165 2.968.83 2.968 3.035" mask="url(#h)"/>
        </g>
        <g transform="translate(30.378 55.73)">
            <mask id="j" fill="#fff">
                <use xlink:href="#i"/>
            </mask>
            <path fill="#FEFEFE" d="M2.787 1.166c-.826 0-1.327.772-1.327 1.59h2.643c-.011-.761-.435-1.59-1.316-1.59zM1.472 3.819c.021 1.074.76 1.869 1.902 1.869.565 0 1.098-.156 1.599-.448l.359.93c-.63.469-1.468.717-2.208.717-2.131 0-3.088-1.68-3.088-3.46C.036 1.57 1.102.047 2.82.047c1.685 0 2.73 1.343 2.73 3.368v.404H1.471z" mask="url(#j)"/>
        </g>
        <path fill="#FEFEFE" d="M29.022 58.115v4.355h-1.403v-3.907c0-.705-.13-1.5-.99-1.5-.63 0-1.228.381-1.728.783v4.624h-1.392v-6.526h1.164l.163.728c.706-.549 1.38-.896 2.25-.896.935 0 1.936.638 1.936 2.34M22.552 16.086c-2.87 0-5.752 1.265-5.752 1.265v14.978s2.512.269 5.24.269c4.166 0 7.505-3.706 7.505-8.15 0-4.444-3.285-8.362-6.993-8.362m-6.992-4.075c1.805-.693 4.578-1.332 7.35-1.332 6.84 0 12.495 6.146 12.495 13.769 0 7.612-5.807 13.758-13.212 13.758-2 0-3.86-.212-5.393-.538v5.665c0 2.967-2.316 5.352-5.198 5.352h-.457V17.094c0-2.922 2.154-4.187 4.415-5.083"/>
        <mask id="l" fill="#fff">
            <use xlink:href="#k"/>
        </mask>
        <path fill="#FEFEFE" d="M20.182 62.47h1.392v-6.526h-1.392zM20.877 53.023c.5 0 .893.38.893.894a.898.898 0 0 1-1.796 0c0-.503.392-.894.903-.894M15.647 57.578c0 1.165 2.957.828 2.957 3.034 0 1.433-1.173 2.004-2.5 2.004-1.012 0-1.685-.257-2.197-.583l.468-1.064a2.933 2.933 0 0 0 1.663.538c.697 0 1.164-.29 1.164-.795 0-1.298-2.914-.805-2.914-3.066 0-1.064.804-1.87 2.305-1.87.761 0 1.294.156 1.762.347v1.209c-.5-.212-1.033-.403-1.718-.403-.576 0-.99.19-.99.649M12.614 60.344c0 1.365.02 1.824.12 2.126H11.58l-.261-.648c-.446.401-1.142.794-1.979.794-.837 0-2.077-.448-2.077-2.463v-4.21h1.392v4.12c0 .906.403 1.377 1.186 1.377.597 0 1.098-.358 1.38-.65v-4.846h1.393v4.4zM6.175 0v37.668H0V5.34C0 2.373 2.316 0 5.197 0h.978zM5.828 59.772c0 1.266-.848 2.698-3.11 2.698H.12v-9.09h2.675c1.696 0 2.469 1.153 2.469 2.228 0 .85-.392 1.59-1.131 1.937v.011c.935.212 1.696 1.074 1.696 2.216zm-3.175 1.455c1.13 0 1.707-.582 1.707-1.444 0-.772-.61-1.332-1.642-1.332H1.522v2.776h1.13zm1.175-5.339c0-.762-.446-1.254-1.404-1.254h-.902v2.575h1c.664 0 1.306-.493 1.306-1.32z" mask="url(#l)"/>
    </g>
</svg>
